<svg width="25" height="26" viewBox="0 0 25 26" fill="none" xmlns="http://www.w3.org/2000/svg">
<path d="M24.4885 13.3892C24.4885 12.3649 24.4069 11.6175 24.2301 10.8424H12.739V15.4653H19.484C19.3481 16.6142 18.6138 18.3443 16.9819 19.5069L16.959 19.6617L20.5923 22.5265L20.844 22.552C23.1558 20.379 24.4885 17.1816 24.4885 13.3892Z" fill="#4285F4"/>
<path d="M12.739 25.5694C16.0435 25.5694 18.8177 24.462 20.844 22.552L16.9819 19.5069C15.9484 20.2405 14.5612 20.7526 12.739 20.7526C9.50248 20.7526 6.75551 18.5796 5.77629 15.576L5.63276 15.5885L1.85483 18.5643L1.80542 18.7041C3.81804 22.7734 7.95214 25.5694 12.739 25.5694Z" fill="#34A853"/>
<path d="M5.77634 15.5761C5.51797 14.801 5.36844 13.9704 5.36844 13.1123C5.36844 12.2541 5.51797 11.4237 5.76275 10.6486L5.75591 10.4835L1.93062 7.45984L1.80547 7.52043C0.975969 9.20908 0.5 11.1054 0.5 13.1123C0.5 15.1193 0.975969 17.0155 1.80547 18.7041L5.77634 15.5761Z" fill="#FBBC05"/>
<path d="M12.739 5.47197C15.0372 5.47197 16.5875 6.48237 17.4714 7.32674L20.9255 3.89411C18.8042 1.88714 16.0435 0.655273 12.739 0.655273C7.95214 0.655273 3.81804 3.45117 1.80542 7.52045L5.7627 10.6486C6.75551 7.64506 9.50248 5.47197 12.739 5.47197Z" fill="#EB4335"/>
</svg>
