<svg width="50" height="50" viewBox="0 0 50 50" fill="none" xmlns="http://www.w3.org/2000/svg">
<rect width="50" height="50" rx="5" fill="url(#paint0_linear_161_2755)"/>
<path d="M40.2491 34.8603C39.261 37.2922 37.6621 39.422 35.6179 41.0292C33.5738 42.6365 31.1587 43.6627 28.623 44.0017C26.0872 44.3406 23.5229 43.9799 21.1958 42.9569C18.8686 41.9339 16.8631 40.2858 15.387 38.1833L18.4898 35.8622C19.5734 37.4057 21.0457 38.6156 22.7542 39.3666C24.4626 40.1176 26.3452 40.3824 28.2067 40.1336C30.0683 39.8848 31.8413 39.1314 33.342 37.9515C34.8426 36.7715 36.0165 35.2079 36.7419 33.4227L40.2491 34.8603Z" fill="url(#paint1_linear_161_2755)"/>
<path d="M39.5698 33.4958C38.5817 35.9276 36.9828 38.0574 34.9386 39.6647C32.8945 41.272 30.4795 42.2982 27.9437 42.6371C25.4079 42.976 22.8437 42.6153 20.5165 41.5923C18.1893 40.5693 16.1838 38.9212 14.7078 36.8188L17.8105 34.4976C18.8941 36.0411 20.3664 37.251 22.0749 38.002C23.7834 38.7531 25.6659 39.0179 27.5275 38.7691C29.389 38.5203 31.162 37.7669 32.6627 36.5869C34.1633 35.407 35.3372 33.8434 36.0626 32.0581L39.5698 33.4958Z" fill="url(#paint2_linear_161_2755)"/>
<path d="M10.1061 19.6958C9.01054 19.555 8.22173 18.5464 8.51493 17.4816C9.02841 15.6169 9.92337 13.8657 11.1551 12.3328C12.8103 10.2729 15.0135 8.68217 17.5364 7.72531C20.0594 6.76845 22.8103 6.48029 25.5044 6.89066C27.5157 7.19703 29.4406 7.88442 31.1698 8.90569C32.1324 9.4742 32.2598 10.768 31.5388 11.621V11.621C30.8545 12.4306 29.6581 12.5356 28.7264 12.028C27.5483 11.3862 26.2572 10.95 24.9136 10.7453C22.9359 10.444 20.9163 10.6556 19.0641 11.3581C17.212 12.0605 15.5945 13.2283 14.3794 14.7406C13.588 15.7254 12.986 16.833 12.5954 18.0118C12.248 19.06 11.2649 19.8447 10.1693 19.7039L10.1061 19.6958Z" fill="#A79EDF"/>
<path d="M10.7351 33.3726C12.9767 36.9205 16.4905 39.4671 20.5494 40.4854C24.6083 41.5036 28.9016 40.9157 32.5409 38.8431C36.1802 36.7706 38.8869 33.3721 40.101 29.351C41.3151 25.3298 40.9436 20.9937 39.0634 17.24C37.1832 13.4863 33.9382 10.6022 29.9999 9.18464C26.0616 7.76705 21.7314 7.92442 17.9054 9.62419C14.0793 11.324 11.0504 14.436 9.44517 18.3164C7.83998 22.1968 7.78146 26.5485 9.28172 30.471L12.6466 29.1727C11.478 26.1175 11.5236 22.728 12.7739 19.7056C14.0242 16.6831 16.3834 14.2592 19.3635 12.9352C22.3435 11.6113 25.7163 11.4887 28.7838 12.5929C31.8513 13.697 34.3789 15.9434 35.8433 18.8672C37.3078 21.7909 37.5972 25.1682 36.6515 28.3003C35.7059 31.4324 33.5976 34.0794 30.763 35.6937C27.9283 37.308 24.5843 37.7659 21.4229 36.9728C18.2615 36.1797 15.5246 34.1962 13.7786 31.4327L10.7351 33.3726Z" fill="url(#paint3_linear_161_2755)"/>
<g filter="url(#filter0_di_161_2755)">
<ellipse cx="24.6094" cy="24.6765" rx="14.2648" ry="14.3276" fill="url(#paint4_linear_161_2755)" shape-rendering="crispEdges"/>
</g>
<path d="M20.9574 28.1591C20.3211 28.1591 19.7593 27.9983 19.272 27.6768C18.7848 27.352 18.4037 26.8946 18.1286 26.3047C17.8535 25.7114 17.7159 25.0104 17.7159 24.2017C17.7159 23.3996 17.8535 22.7036 18.1286 22.1136C18.4037 21.5237 18.7865 21.0679 19.277 20.7464C19.7675 20.425 20.3343 20.2642 20.9773 20.2642C21.4745 20.2642 21.8672 20.3471 22.1556 20.5128C22.4472 20.6752 22.6693 20.8608 22.8218 21.0696C22.9775 21.2751 23.0985 21.4441 23.1847 21.5767H23.2841V17.8182H24.4574V28H23.3239V26.8267H23.1847C23.0985 26.9659 22.9759 27.1416 22.8168 27.3537C22.6577 27.5625 22.4307 27.7498 22.1357 27.9155C21.8407 28.0779 21.4479 28.1591 20.9574 28.1591ZM21.1165 27.1051C21.5872 27.1051 21.9849 26.9825 22.3097 26.7372C22.6345 26.4886 22.8814 26.1456 23.0505 25.7081C23.2195 25.2673 23.304 24.7585 23.304 24.1818C23.304 23.6117 23.2211 23.1129 23.0554 22.6854C22.8897 22.2545 22.6444 21.9197 22.3196 21.6811C21.9948 21.4392 21.5938 21.3182 21.1165 21.3182C20.6193 21.3182 20.205 21.4458 19.8736 21.701C19.5455 21.9529 19.2986 22.2959 19.1328 22.7301C18.9704 23.161 18.8892 23.6449 18.8892 24.1818C18.8892 24.7254 18.9721 25.2192 19.1378 25.6634C19.3068 26.1042 19.5554 26.4555 19.8836 26.7173C20.215 26.9759 20.626 27.1051 21.1165 27.1051Z" fill="#ECECEC"/>
<path d="M28.5896 25.7758C28.4802 25.4411 28.336 25.1411 28.157 24.876C27.9814 24.6075 27.7709 24.3788 27.5257 24.1899C27.2837 24.001 27.0086 23.8568 26.7004 23.7574C26.3921 23.658 26.0541 23.6082 25.6862 23.6082C25.0829 23.6082 24.5344 23.764 24.0406 24.0756C23.5467 24.3871 23.154 24.8462 22.8623 25.4527C22.5706 26.0592 22.4248 26.8033 22.4248 27.6849C22.4248 28.5666 22.5723 29.3106 22.8673 29.9172C23.1623 30.5237 23.5616 30.9828 24.0654 31.2943C24.5692 31.6059 25.136 31.7616 25.7657 31.7616C26.349 31.7616 26.8628 31.6374 27.3069 31.3888C27.7543 31.1369 28.1024 30.7822 28.3509 30.3249C28.6028 29.8642 28.7288 29.3222 28.7288 28.6991L29.1066 28.7787H26.0441V27.6849H29.922V28.7787C29.922 29.6172 29.743 30.3464 29.385 30.9662C29.0304 31.586 28.5399 32.0666 27.9134 32.408C27.2903 32.746 26.5744 32.9151 25.7657 32.9151C24.8642 32.9151 24.0721 32.7029 23.3893 32.2787C22.7098 31.8544 22.1795 31.2512 21.7984 30.469C21.4205 29.6868 21.2316 28.7588 21.2316 27.6849C21.2316 26.8795 21.3393 26.1553 21.5548 25.5124C21.7735 24.866 22.0818 24.3159 22.4795 23.8618C22.8772 23.4077 23.3479 23.0597 23.8914 22.8178C24.435 22.5758 25.0332 22.4548 25.6862 22.4548C26.2231 22.4548 26.7236 22.536 27.1876 22.6984C27.6549 22.8575 28.0709 23.0846 28.4355 23.3795C28.8034 23.6712 29.1099 24.0209 29.3552 24.4285C29.6005 24.8329 29.7695 25.282 29.8623 25.7758H28.5896Z" fill="#ECECEC"/>
<defs>
<filter id="filter0_di_161_2755" x="6.34467" y="10.3489" width="36.5295" height="36.6552" filterUnits="userSpaceOnUse" color-interpolation-filters="sRGB">
<feFlood flood-opacity="0" result="BackgroundImageFix"/>
<feColorMatrix in="SourceAlpha" type="matrix" values="0 0 0 0 0 0 0 0 0 0 0 0 0 0 0 0 0 0 127 0" result="hardAlpha"/>
<feOffset dy="4"/>
<feGaussianBlur stdDeviation="2"/>
<feComposite in2="hardAlpha" operator="out"/>
<feColorMatrix type="matrix" values="0 0 0 0 0 0 0 0 0 0 0 0 0 0 0 0 0 0 0.25 0"/>
<feBlend mode="normal" in2="BackgroundImageFix" result="effect1_dropShadow_161_2755"/>
<feBlend mode="normal" in="SourceGraphic" in2="effect1_dropShadow_161_2755" result="shape"/>
<feColorMatrix in="SourceAlpha" type="matrix" values="0 0 0 0 0 0 0 0 0 0 0 0 0 0 0 0 0 0 127 0" result="hardAlpha"/>
<feOffset dx="2" dy="2"/>
<feGaussianBlur stdDeviation="5"/>
<feComposite in2="hardAlpha" operator="arithmetic" k2="-1" k3="1"/>
<feColorMatrix type="matrix" values="0 0 0 0 0 0 0 0 0 0 0 0 0 0 0 0 0 0 0.25 0"/>
<feBlend mode="normal" in2="shape" result="effect2_innerShadow_161_2755"/>
</filter>
<linearGradient id="paint0_linear_161_2755" x1="16.4296" y1="9.53347" x2="35.9194" y2="56.502" gradientUnits="userSpaceOnUse">
<stop stop-color="#F2B4B4"/>
<stop offset="0.41682" stop-color="#E1CAFF" stop-opacity="0.69"/>
<stop offset="0.724732" stop-color="#CAEFFF" stop-opacity="0.47"/>
<stop offset="1" stop-color="#FBCAFF" stop-opacity="0.32"/>
</linearGradient>
<linearGradient id="paint1_linear_161_2755" x1="14.437" y1="41.4488" x2="42.4681" y2="53.4826" gradientUnits="userSpaceOnUse">
<stop stop-color="#697291"/>
<stop offset="1" stop-color="#CD7AFF"/>
</linearGradient>
<linearGradient id="paint2_linear_161_2755" x1="16.6044" y1="38.8423" x2="32.2528" y2="44.4964" gradientUnits="userSpaceOnUse">
<stop stop-color="#B995F4"/>
<stop offset="1" stop-color="#7977F8"/>
</linearGradient>
<linearGradient id="paint3_linear_161_2755" x1="42.4169" y1="31.3374" x2="15.6781" y2="10.8871" gradientUnits="userSpaceOnUse">
<stop stop-color="#292E3D"/>
<stop offset="1" stop-color="#595F73"/>
</linearGradient>
<linearGradient id="paint4_linear_161_2755" x1="9.04787" y1="20.4433" x2="42.8026" y2="33.369" gradientUnits="userSpaceOnUse">
<stop offset="0.0846355" stop-color="#4E83D2" stop-opacity="0.8"/>
<stop offset="1" stop-color="#16161D"/>
</linearGradient>
</defs>
</svg>
