<svg width="32" height="32" viewBox="0 0 32 32" fill="none" xmlns="http://www.w3.org/2000/svg">
<path d="M31.4762 10.7221L31.9864 7.86492C32.0802 7.33957 31.6763 6.85714 31.1426 6.85714H25.7991L26.8436 1.00779C26.9374 0.482428 26.5334 0 25.9998 0H23.0975C22.8963 3.65476e-06 22.7015 0.0707853 22.5472 0.199951C22.393 0.329116 22.2891 0.508432 22.2537 0.7065L21.1554 6.85714H14.11L15.1545 1.00779C15.2484 0.482428 14.8444 0 14.3107 0H11.4084C11.2072 3.65476e-06 11.0124 0.0707853 10.8582 0.199951C10.7039 0.329116 10.6 0.508432 10.5646 0.7065L9.46629 6.85714H3.81658C3.61538 6.85714 3.42059 6.92793 3.26633 7.05709C3.11206 7.18626 3.00815 7.36557 2.97279 7.56364L2.46258 10.4208C2.36879 10.9461 2.77272 11.4286 3.30636 11.4286H8.64993L7.01729 20.5714H1.36758C1.16638 20.5714 0.971593 20.6422 0.817329 20.7714C0.663064 20.9005 0.559154 21.0799 0.523793 21.2779L0.0135793 24.1351C-0.0802064 24.6604 0.323722 25.1428 0.857365 25.1428H6.20093L5.15643 30.9922C5.06265 31.5176 5.46658 32 6.00022 32H8.9025C9.1037 32 9.29849 31.9292 9.45275 31.8C9.60702 31.6709 9.71093 31.4916 9.74629 31.2935L10.8447 25.1428H17.89L16.8455 30.9922C16.7516 31.5176 17.1556 32 17.6893 32H20.5916C20.7928 32 20.9876 31.9292 21.1418 31.8C21.2961 31.6709 21.4 31.4916 21.4354 31.2935L22.5337 25.1428H28.1834C28.3846 25.1428 28.5794 25.0721 28.7337 24.9429C28.8879 24.8137 28.9918 24.6344 29.0272 24.4363L29.5374 21.5792C29.6312 21.0538 29.2273 20.5714 28.6936 20.5714H23.3501L24.9827 11.4286H30.6324C30.8336 11.4286 31.0284 11.3578 31.1827 11.2286C31.3369 11.0994 31.4408 10.9201 31.4762 10.7221ZM18.7064 20.5714H11.6611L13.2937 11.4286H20.339L18.7064 20.5714Z" fill="#D1CAFF"/>
</svg>
